<svg xmlns="http://www.w3.org/2000/svg" width="1180" height="360" viewBox="0 0 1180 360" role="img" aria-label="ERD Diagramm">
<style>
  .bg { fill: #07131f; }
  .grid line { stroke: rgba(255,255,255,0.04); stroke-width: 1; }
  .entity { fill: #081523; stroke: #5d7394; stroke-width: 2.5; }
  .header { fill: #284a56; }
  .divider { stroke: #c8dcff; stroke-width: 2; }
  .title { fill: #f3f6fb; font: 700 20px Arial, sans-serif; text-anchor: middle; dominant-baseline: middle; }
  .attr { fill: #d8e1ee; font: 14px Arial, sans-serif; }
  .conn { fill: none; stroke: #cfe0ff; stroke-width: 3; stroke-linecap: round; stroke-linejoin: round; }
  .label { fill: #79ddd7; font: 700 14px Arial, sans-serif; text-anchor: middle; paint-order: stroke; stroke: #07131f; stroke-width: 8; stroke-linejoin: round; }
  .card { fill: #f0c85b; font: 700 14px Arial, sans-serif; text-anchor: middle; dominant-baseline: middle; paint-order: stroke; stroke: #07131f; stroke-width: 7; stroke-linejoin: round; }
  .caption { fill: #b7c9df; font: 13px Arial, sans-serif; }
</style>
<rect class="bg" x="0" y="0" width="1180" height="360"/><g class="grid"><line x1="0" y1="0" x2="0" y2="360"/><line x1="40" y1="0" x2="40" y2="360"/><line x1="80" y1="0" x2="80" y2="360"/><line x1="120" y1="0" x2="120" y2="360"/><line x1="160" y1="0" x2="160" y2="360"/><line x1="200" y1="0" x2="200" y2="360"/><line x1="240" y1="0" x2="240" y2="360"/><line x1="280" y1="0" x2="280" y2="360"/><line x1="320" y1="0" x2="320" y2="360"/><line x1="360" y1="0" x2="360" y2="360"/><line x1="400" y1="0" x2="400" y2="360"/><line x1="440" y1="0" x2="440" y2="360"/><line x1="480" y1="0" x2="480" y2="360"/><line x1="520" y1="0" x2="520" y2="360"/><line x1="560" y1="0" x2="560" y2="360"/><line x1="600" y1="0" x2="600" y2="360"/><line x1="640" y1="0" x2="640" y2="360"/><line x1="680" y1="0" x2="680" y2="360"/><line x1="720" y1="0" x2="720" y2="360"/><line x1="760" y1="0" x2="760" y2="360"/><line x1="800" y1="0" x2="800" y2="360"/><line x1="840" y1="0" x2="840" y2="360"/><line x1="880" y1="0" x2="880" y2="360"/><line x1="920" y1="0" x2="920" y2="360"/><line x1="960" y1="0" x2="960" y2="360"/><line x1="1000" y1="0" x2="1000" y2="360"/><line x1="1040" y1="0" x2="1040" y2="360"/><line x1="1080" y1="0" x2="1080" y2="360"/><line x1="1120" y1="0" x2="1120" y2="360"/><line x1="1160" y1="0" x2="1160" y2="360"/><line x1="0" y1="0" x2="1180" y2="0"/><line x1="0" y1="40" x2="1180" y2="40"/><line x1="0" y1="80" x2="1180" y2="80"/><line x1="0" y1="120" x2="1180" y2="120"/><line x1="0" y1="160" x2="1180" y2="160"/><line x1="0" y1="200" x2="1180" y2="200"/><line x1="0" y1="240" x2="1180" y2="240"/><line x1="0" y1="280" x2="1180" y2="280"/><line x1="0" y1="320" x2="1180" y2="320"/><line x1="0" y1="360" x2="1180" y2="360"/></g><g><rect class="entity" x="60" y="80" rx="20" ry="20" width="280" height="130"/><path class="header" d="M 80 80 H 320 Q 340 80 340 100 V 124 H 60 V 100 Q 60 80 80 80 Z"/><line class="divider" x1="60" y1="124" x2="340" y2="124"/><text class="title" x="200.0" y="102">Mitglied</text><text class="attr" x="78" y="144">PK mitglied_id</text><text class="attr" x="78" y="168">name</text><text class="attr" x="78" y="192">klasse</text></g><g><rect class="entity" x="420" y="80" rx="20" ry="20" width="300" height="154"/><path class="header" d="M 440 80 H 700 Q 720 80 720 100 V 124 H 420 V 100 Q 420 80 440 80 Z"/><line class="divider" x1="420" y1="124" x2="720" y2="124"/><text class="title" x="570.0" y="102">Ausleihe</text><text class="attr" x="438" y="144">PK ausleihe_id</text><text class="attr" x="438" y="168">ausleihdatum</text><text class="attr" x="438" y="192">rückgabedatum</text><text class="attr" x="438" y="216">FK mitglied_id</text></g><g><rect class="entity" x="860" y="80" rx="20" ry="20" width="260" height="130"/><path class="header" d="M 880 80 H 1100 Q 1120 80 1120 100 V 124 H 860 V 100 Q 860 80 880 80 Z"/><line class="divider" x1="860" y1="124" x2="1120" y2="124"/><text class="title" x="990.0" y="102">Buch</text><text class="attr" x="878" y="144">PK buch_id</text><text class="attr" x="878" y="168">isbn</text><text class="attr" x="878" y="192">titel</text></g><g><path class="conn" d="M 340 166 L 380 166 L 380 190 L 420 190"/><text class="card" x="360" y="166">1</text><text class="card" x="400" y="190">n</text><text class="label" x="380" y="150">tätigt</text></g><g><path class="conn" d="M 720 190 L 790 190 L 790 166 L 860 166"/><text class="card" x="740" y="190">n</text><text class="card" x="840" y="166">1</text><text class="label" x="790" y="150">wird ausgeliehen in</text></g></svg>