<svg xmlns="http://www.w3.org/2000/svg" width="1140" height="520" viewBox="0 0 1140 520" role="img" aria-label="ERD Diagramm">
<style>
  .bg { fill: #07131f; }
  .grid line { stroke: rgba(255,255,255,0.04); stroke-width: 1; }
  .entity { fill: #081523; stroke: #5d7394; stroke-width: 2.5; }
  .header { fill: #284a56; }
  .divider { stroke: #c8dcff; stroke-width: 2; }
  .title { fill: #f3f6fb; font: 700 20px Arial, sans-serif; text-anchor: middle; dominant-baseline: middle; }
  .attr { fill: #d8e1ee; font: 14px Arial, sans-serif; }
  .conn { fill: none; stroke: #cfe0ff; stroke-width: 3; stroke-linecap: round; stroke-linejoin: round; }
  .label { fill: #79ddd7; font: 700 14px Arial, sans-serif; text-anchor: middle; paint-order: stroke; stroke: #07131f; stroke-width: 8; stroke-linejoin: round; }
  .card { fill: #f0c85b; font: 700 14px Arial, sans-serif; text-anchor: middle; dominant-baseline: middle; paint-order: stroke; stroke: #07131f; stroke-width: 7; stroke-linejoin: round; }
  .caption { fill: #b7c9df; font: 13px Arial, sans-serif; }
</style>
<rect class="bg" x="0" y="0" width="1140" height="520"/><g class="grid"><line x1="0" y1="0" x2="0" y2="520"/><line x1="40" y1="0" x2="40" y2="520"/><line x1="80" y1="0" x2="80" y2="520"/><line x1="120" y1="0" x2="120" y2="520"/><line x1="160" y1="0" x2="160" y2="520"/><line x1="200" y1="0" x2="200" y2="520"/><line x1="240" y1="0" x2="240" y2="520"/><line x1="280" y1="0" x2="280" y2="520"/><line x1="320" y1="0" x2="320" y2="520"/><line x1="360" y1="0" x2="360" y2="520"/><line x1="400" y1="0" x2="400" y2="520"/><line x1="440" y1="0" x2="440" y2="520"/><line x1="480" y1="0" x2="480" y2="520"/><line x1="520" y1="0" x2="520" y2="520"/><line x1="560" y1="0" x2="560" y2="520"/><line x1="600" y1="0" x2="600" y2="520"/><line x1="640" y1="0" x2="640" y2="520"/><line x1="680" y1="0" x2="680" y2="520"/><line x1="720" y1="0" x2="720" y2="520"/><line x1="760" y1="0" x2="760" y2="520"/><line x1="800" y1="0" x2="800" y2="520"/><line x1="840" y1="0" x2="840" y2="520"/><line x1="880" y1="0" x2="880" y2="520"/><line x1="920" y1="0" x2="920" y2="520"/><line x1="960" y1="0" x2="960" y2="520"/><line x1="1000" y1="0" x2="1000" y2="520"/><line x1="1040" y1="0" x2="1040" y2="520"/><line x1="1080" y1="0" x2="1080" y2="520"/><line x1="1120" y1="0" x2="1120" y2="520"/><line x1="0" y1="0" x2="1140" y2="0"/><line x1="0" y1="40" x2="1140" y2="40"/><line x1="0" y1="80" x2="1140" y2="80"/><line x1="0" y1="120" x2="1140" y2="120"/><line x1="0" y1="160" x2="1140" y2="160"/><line x1="0" y1="200" x2="1140" y2="200"/><line x1="0" y1="240" x2="1140" y2="240"/><line x1="0" y1="280" x2="1140" y2="280"/><line x1="0" y1="320" x2="1140" y2="320"/><line x1="0" y1="360" x2="1140" y2="360"/><line x1="0" y1="400" x2="1140" y2="400"/><line x1="0" y1="440" x2="1140" y2="440"/><line x1="0" y1="480" x2="1140" y2="480"/><line x1="0" y1="520" x2="1140" y2="520"/></g><g><rect class="entity" x="50" y="50" rx="20" ry="20" width="210" height="106"/><path class="header" d="M 70 50 H 240 Q 260 50 260 70 V 94 H 50 V 70 Q 50 50 70 50 Z"/><line class="divider" x1="50" y1="94" x2="260" y2="94"/><text class="title" x="155.0" y="72">Kunde</text><text class="attr" x="68" y="114">PK kunde_id</text><text class="attr" x="68" y="138">name</text></g><g><rect class="entity" x="360" y="50" rx="20" ry="20" width="250" height="154"/><path class="header" d="M 380 50 H 590 Q 610 50 610 70 V 94 H 360 V 70 Q 360 50 380 50 Z"/><line class="divider" x1="360" y1="94" x2="610" y2="94"/><text class="title" x="485.0" y="72">Rechnung</text><text class="attr" x="378" y="114">PK rechnung_id</text><text class="attr" x="378" y="138">datum</text><text class="attr" x="378" y="162">FK kunde_id</text><text class="attr" x="378" y="186">betrag</text></g><g><rect class="entity" x="50" y="280" rx="20" ry="20" width="230" height="106"/><path class="header" d="M 70 280 H 260 Q 280 280 280 300 V 324 H 50 V 300 Q 50 280 70 280 Z"/><line class="divider" x1="50" y1="324" x2="280" y2="324"/><text class="title" x="165.0" y="302">Bestellung</text><text class="attr" x="68" y="344">PK bestellung_id</text><text class="attr" x="68" y="368">datum</text></g><g><rect class="entity" x="360" y="280" rx="20" ry="20" width="270" height="154"/><path class="header" d="M 380 280 H 610 Q 630 280 630 300 V 324 H 360 V 300 Q 360 280 380 280 Z"/><line class="divider" x1="360" y1="324" x2="630" y2="324"/><text class="title" x="495.0" y="302">Bestellposition</text><text class="attr" x="378" y="344">PK position_id</text><text class="attr" x="378" y="368">FK bestellung_id</text><text class="attr" x="378" y="392">FK produkt_id</text><text class="attr" x="378" y="416">menge</text></g><g><rect class="entity" x="780" y="50" rx="20" ry="20" width="230" height="106"/><path class="header" d="M 800 50 H 990 Q 1010 50 1010 70 V 94 H 780 V 70 Q 780 50 800 50 Z"/><line class="divider" x1="780" y1="94" x2="1010" y2="94"/><text class="title" x="895.0" y="72">Abteilung</text><text class="attr" x="798" y="114">PK abteilung_id</text><text class="attr" x="798" y="138">name</text></g><g><rect class="entity" x="780" y="280" rx="20" ry="20" width="300" height="130"/><path class="header" d="M 800 280 H 1060 Q 1080 280 1080 300 V 324 H 780 V 300 Q 780 280 800 280 Z"/><line class="divider" x1="780" y1="324" x2="1080" y2="324"/><text class="title" x="930.0" y="302">Mitarbeiter</text><text class="attr" x="798" y="344">PK mitarbeiter_id</text><text class="attr" x="798" y="368">name</text><text class="attr" x="798" y="392">FK abteilung_id NULL</text></g><g><path class="conn" d="M 260 146 L 310 146 L 310 170 L 360 170"/><text class="card" x="285" y="146">1</text><text class="card" x="335" y="170">n</text><text class="label" x="310" y="130">hat</text></g><g><path class="conn" d="M 280 352 L 320 352 L 320 376 L 360 376"/><text class="card" x="300" y="352">1</text><text class="card" x="340" y="376">n</text><text class="label" x="320" y="336">enthält</text></g><g><path class="conn" d="M 895 158 L 930 158 L 930 280 L 930 280"/><text class="card" x="895" y="180">1</text><text class="card" x="930" y="258">n</text><text class="label" x="930" y="210">ordnet zu</text></g></svg>